<svg data-v-423bf9ae="" xmlns="http://www.w3.org/2000/svg" viewBox="0 0 368.5101885015101 60" class="font"><!----><!----><!----><g data-v-423bf9ae="" id="0caeec02-5df3-40a9-9496-89336f49b30d" fill="white" transform="matrix(6.1224488604322,0,0,6.1224488604322,2.7744320618694474e-7,-4.285714427340487)"><path d="M3.77 2.86L2.79 2.86L2.79 1.81Q2.79 1.67 2.65 1.67L2.65 1.67L1.12 1.67Q0.98 1.67 0.98 1.81L0.98 1.81L0.98 4.47Q0.98 4.56 1.06 4.59L1.06 4.59L2.65 4.59Q3.12 4.59 3.44 4.92Q3.77 5.25 3.77 5.71L3.77 5.71L3.77 9.39Q3.77 9.81 3.50 10.12Q3.23 10.43 2.83 10.50L2.83 10.50L0.94 10.50Q0.53 10.43 0.27 10.12Q0 9.81 0 9.39L0 9.39L0 8.34L0.98 8.34L0.98 9.39Q0.98 9.53 1.12 9.53L1.12 9.53L2.65 9.53Q2.79 9.53 2.79 9.39L2.79 9.39L2.79 5.71Q2.79 5.61 2.70 5.59L2.70 5.59L1.12 5.59Q0.66 5.59 0.33 5.26Q0 4.93 0 4.47L0 4.47L0 1.81Q0 1.39 0.27 1.08Q0.53 0.77 0.94 0.70L0.94 0.70L2.83 0.70Q3.23 0.77 3.50 1.08Q3.77 1.39 3.77 1.81L3.77 1.81L3.77 2.86ZM8.44 2.86L7.46 2.86L7.46 1.81Q7.46 1.67 7.32 1.67L7.32 1.67L5.80 1.67Q5.66 1.67 5.66 1.81L5.66 1.81L5.66 4.47Q5.66 4.56 5.74 4.59L5.74 4.59L7.32 4.59Q7.80 4.59 8.12 4.92Q8.44 5.25 8.44 5.71L8.44 5.71L8.44 9.39Q8.44 9.81 8.18 10.12Q7.91 10.43 7.50 10.50L7.50 10.50L5.61 10.50Q5.21 10.43 4.94 10.12Q4.68 9.81 4.68 9.39L4.68 9.39L4.68 8.34L5.66 8.34L5.66 9.39Q5.66 9.53 5.80 9.53L5.80 9.53L7.32 9.53Q7.46 9.53 7.46 9.39L7.46 9.39L7.46 5.71Q7.46 5.61 7.38 5.59L7.38 5.59L5.80 5.59Q5.33 5.59 5.00 5.26Q4.68 4.93 4.68 4.47L4.68 4.47L4.68 1.81Q4.68 1.39 4.94 1.08Q5.21 0.77 5.61 0.70L5.61 0.70L7.50 0.70Q7.91 0.77 8.18 1.08Q8.44 1.39 8.44 1.81L8.44 1.81L8.44 2.86ZM10.29 0.70L12.35 0.70Q12.75 0.77 13.02 1.08Q13.29 1.39 13.29 1.81L13.29 1.81L13.29 9.39Q13.29 9.81 13.02 10.12Q12.75 10.43 12.35 10.50L12.35 10.50L10.29 10.50Q9.88 10.43 9.62 10.12Q9.35 9.81 9.35 9.39L9.35 9.39L9.35 1.81Q9.35 1.39 9.62 1.08Q9.88 0.77 10.29 0.70L10.29 0.70ZM12.31 9.39L12.31 1.81Q12.31 1.67 12.18 1.67L12.18 1.67L10.47 1.67Q10.33 1.67 10.33 1.81L10.33 1.81L10.33 9.39Q10.33 9.53 10.47 9.53L10.47 9.53L12.18 9.53Q12.31 9.53 12.31 9.39L12.31 9.39ZM17.12 0.70L18.10 0.70L18.10 10.50L17.12 10.50L17.12 5.60L15.18 5.60L15.18 10.50L14.20 10.50L14.20 0.70L15.18 0.70L15.18 4.62L17.12 4.62L17.12 0.70ZM19.99 0.70L19.99 10.50L19.01 10.50L19.01 0.70L19.99 0.70ZM24.67 2.86L23.69 2.86L23.69 1.81Q23.69 1.67 23.55 1.67L23.55 1.67L22.02 1.67Q21.88 1.67 21.88 1.81L21.88 1.81L21.88 4.47Q21.88 4.56 21.97 4.59L21.97 4.59L23.55 4.59Q24.02 4.59 24.35 4.92Q24.67 5.25 24.67 5.71L24.67 5.71L24.67 9.39Q24.67 9.81 24.40 10.12Q24.14 10.43 23.73 10.50L23.73 10.50L21.84 10.50Q21.43 10.43 21.17 10.12Q20.90 9.81 20.90 9.39L20.90 9.39L20.90 8.34L21.88 8.34L21.88 9.39Q21.88 9.53 22.02 9.53L22.02 9.53L23.55 9.53Q23.69 9.53 23.69 9.39L23.69 9.39L23.69 5.71Q23.69 5.61 23.60 5.59L23.60 5.59L22.02 5.59Q21.56 5.59 21.23 5.26Q20.90 4.93 20.90 4.47L20.90 4.47L20.90 1.81Q20.90 1.39 21.17 1.08Q21.43 0.77 21.84 0.70L21.84 0.70L23.73 0.70Q24.14 0.77 24.40 1.08Q24.67 1.39 24.67 1.81L24.67 1.81L24.67 2.86ZM30.81 8.34L31.79 8.34L31.79 9.39Q31.79 9.81 31.54 10.12Q31.28 10.43 30.87 10.50L30.87 10.50L28.83 10.50Q28.42 10.43 28.15 10.12Q27.89 9.81 27.89 9.39L27.89 9.39L27.89 1.81Q27.89 1.39 28.15 1.08Q28.42 0.77 28.83 0.70L28.83 0.70L30.87 0.70Q31.28 0.77 31.54 1.08Q31.79 1.39 31.79 1.81L31.79 1.81L31.79 2.86L30.81 2.86L30.81 1.81Q30.81 1.67 30.69 1.67L30.69 1.67L29.01 1.67Q28.87 1.67 28.87 1.81L28.87 1.81L28.87 9.39Q28.87 9.53 29.01 9.53L29.01 9.53L30.69 9.53Q30.81 9.53 30.81 9.39L30.81 9.39L30.81 8.34ZM33.64 0.70L35.70 0.70Q36.11 0.77 36.37 1.08Q36.64 1.39 36.64 1.81L36.64 1.81L36.64 9.39Q36.64 9.81 36.37 10.12Q36.11 10.43 35.70 10.50L35.70 10.50L33.64 10.50Q33.24 10.43 32.97 10.12Q32.70 9.81 32.70 9.39L32.70 9.39L32.70 1.81Q32.70 1.39 32.97 1.08Q33.24 0.77 33.64 0.70L33.64 0.70ZM35.66 9.39L35.66 1.81Q35.66 1.67 35.53 1.67L35.53 1.67L33.82 1.67Q33.68 1.67 33.68 1.81L33.68 1.81L33.68 9.39Q33.68 9.53 33.82 9.53L33.82 9.53L35.53 9.53Q35.66 9.53 35.66 9.39L35.66 9.39ZM40.49 0.70L41.47 0.70L41.47 10.50L40.49 10.50L40.49 10.50L40.46 10.50L38.53 4.03L38.53 10.50L37.55 10.50L37.55 0.70L38.53 0.70L38.53 0.71L40.49 7.18L40.49 0.70ZM45.32 0.70L46.30 0.70L46.30 10.50L45.32 10.50L45.32 10.50L45.29 10.50L43.36 4.03L43.36 10.50L42.38 10.50L42.38 0.70L43.36 0.70L43.36 0.71L45.32 7.18L45.32 0.70ZM50.74 1.68L48.19 1.68L48.19 4.62L50.23 4.62L50.23 5.60L48.19 5.60L48.19 9.52L50.74 9.52L50.74 10.50L47.21 10.50L47.21 4.62L48.19 4.62L47.21 1.68L47.21 0.70L50.74 0.70L50.74 1.68ZM54.57 8.34L55.55 8.34L55.55 9.39Q55.55 9.81 55.29 10.12Q55.03 10.43 54.63 10.50L54.63 10.50L52.58 10.50Q52.18 10.43 51.91 10.12Q51.65 9.81 51.65 9.39L51.65 9.39L51.65 1.81Q51.65 1.39 51.91 1.08Q52.18 0.77 52.58 0.70L52.58 0.70L54.63 0.70Q55.03 0.77 55.29 1.08Q55.55 1.39 55.55 1.81L55.55 1.81L55.55 2.86L54.57 2.86L54.57 1.81Q54.57 1.67 54.45 1.67L54.45 1.67L52.77 1.67Q52.63 1.67 52.63 1.81L52.63 1.81L52.63 9.39Q52.63 9.53 52.77 9.53L52.77 9.53L54.45 9.53Q54.57 9.53 54.57 9.39L54.57 9.39L54.57 8.34ZM60.19 0.70L60.19 1.68L58.81 1.68L58.81 10.50L57.83 10.50L57.83 1.68L56.46 1.68L56.46 0.70L60.19 0.70Z"></path></g><!----><!----></svg>